<?xml version="1.0" encoding="UTF-8"?>
<svg id="Capa_1" xmlns="http://www.w3.org/2000/svg" version="1.1" viewBox="0 0 219.1 257.9">
  <!-- Generator: Adobe Illustrator 29.5.0, SVG Export Plug-In . SVG Version: 2.1.0 Build 137)  -->
  <defs>
    <style>
      .st0 {
        fill: none;
        stroke: #9b774c;
      }

      .st1 {
        fill: #9b774c;
      }
    </style>
  </defs>
  <path class="st1" d="M25,25.5h0q-.1,0,0,0c-.3,0-4.3.5-6.7-2.4-2.6-3-3-7.4-3-7.4,0,0,4.4.4,7.4,3,2.8,2.5,2.3,6.8,2.3,6.8Z"/>
  <path class="st0" d="M4.2,5.9c.4,3.1,2.5,15.2,9.8,23.8,7.2,8.4,19.2,8,21.7,7.8"/>
  <path class="st0" d="M36.1,37.5c.2-2.5.5-14.5-7.8-21.7C19.7,8.4,7.6,6.3,4.5,5.9"/>
  <path class="st1" d="M168.6,10.2h0c.1-.2,1.9-2.4,4.6-2.2,2.8.2,5.2,2.2,5.2,2.2,0,0-2.4,2-5.2,2.2-2.7.2-4.6-2.2-4.6-2.2Z"/>
  <path class="st0" d="M86.3,21.2c.3-.4,6.7-11,36.9-11h45.8"/>
  <path class="st1" d="M9.8,208.6h0s-.1,0,0,0c-.2.1-2.4,1.9-2.2,4.6.2,2.8,2.2,5.2,2.2,5.2,0,0,2-2.4,2.2-5.2.2-2.7-2.2-4.6-2.2-4.6Z"/>
  <path class="st0" d="M9.8,209.1v-85.8c0-30.2,10.6-36.6,11-36.9"/>
  <path class="st1" d="M72.1,11.9c0-.8-.7-1.5-1.5-1.5s-1.5.7-1.5,1.5.7,1.5,1.5,1.5,1.5-.7,1.5-1.5Z"/>
  <path class="st0" d="M73.5,23.5c0,0,5.3-4.8,4.3-9.4-.6-2.8-3-3.6-3.9-3.8-1.6-.4-3.3,0-4,.8"/>
  <path class="st1" d="M9.5,72.6c-.8,0-1.5-.7-1.5-1.6s.7-1.5,1.5-1.5,1.5.7,1.5,1.5c.1.9-.6,1.6-1.5,1.6Z"/>
  <path class="st0" d="M23,75.7c-.2.2-4.4,4.9-9.1,4.9s-1,0-1.5-.2c-2.4-.5-4.2-2.4-4.8-4.9-.5-2.1,0-4.3,1.3-5.2"/>
  <circle class="st1" cx="60.6" cy="41.4" r="2"/>
  <path class="st0" d="M50.9,40c0,.3.4,8.3,7.6,8.3s4.8-2.7,4.9-3.9c0-2.1-1.1-4.3-2.5-4.4"/>
  <circle class="st1" cx="38.7" cy="62.1" r="2"/>
  <path class="st0" d="M38.6,51.1c0,0,9.5.5,9.5,8.8s-2.7,5.7-5.3,5.9h-.4c-2.3,0-4.8-1.2-5.1-3.3"/>
  <circle class="st1" cx="21.1" cy="49.3" r="2"/>
  <path class="st0" d="M21.3,50.8c1,0,2.1-.8,2.8-2.2,1.1-2.1.7-4.7-1.1-6.8-2.3-2.7-6.7-2.4-9.6-.5-3.3,2.1-4.2,5.7-2.5,9.5,3.9,8.3,13.8,5,23.3,1.8,1.4-.5,2.8-.9,4.1-1.4,10.8-3.4,17.4,5.1,17.5,5.1"/>
  <path class="st1" d="M53.4,53.9s-.4,17.3,18.4,18.4c-.1,0,1.9-16-18.4-18.4Z"/>
  <path class="st1" d="M49.7,45.7c0-2.4-2-4.4-4.4-4.4s-4.4,2-4.4,4.4,2,4.4,4.4,4.4c2.4,0,4.4-2,4.4-4.4Z"/>
  <circle class="st1" cx="49.1" cy="22.7" r="2"/>
  <path class="st0" d="M50.6,22.6c0,1.5-1,3.1-2.8,4-2.6,1.3-5.6.8-8.1-1.3-3.7-3-3.5-8-1.4-11.2,1.9-3,6.1-5.5,11.7-2.9,9.3,4.4,5.7,15.3,2.4,24.8-.5,1.4-.9,2.8-1.4,4.1-3.1,10,4.8,15.9,4.8,16"/>
  <path class="st0" d="M21,21.7c.2.2,18.7,15.4,11.5,38.8-2.8,8.9-7.7,13.5-12.4,18-7.7,7.3-15.8,14.8-15.8,42v133.1"/>
  <path class="st0" d="M215.4,4.6h-96.5c-27.7,0-35.4,8.2-42.9,16.2s-8.8,9.4-17.5,12c-18.1,5.6-31.2-4.9-35.7-9.3"/>
</svg>