<svg xmlns:xlink="http://www.w3.org/1999/xlink" xmlns="http://www.w3.org/2000/svg" viewBox="0 0 122 72" width="122" height="72" preserveAspectRatio="xMidYMid meet" style="width: 100%; height: 100%; transform: translate3d(0px, 0px, 0px);"><defs><clipPath id="__lottie_element_48"><rect width="122" height="72" x="0" y="0"></rect></clipPath></defs><g clip-path="url(#__lottie_element_48)"><g transform="matrix(1,0,0,1,0,0)" opacity="1" style="display: block;"><g opacity="1" transform="matrix(1,0,0,1,60.292999267578125,59.70399856567383)"><path fill="#C58F4D" fill-opacity="1" d=" M4.578999996185303,-2.194999933242798 C4.188000202178955,-3.8410000801086426 3.7019999027252197,-5.333000183105469 3.0920000076293945,-6.757999897003174 C2.697000026702881,-7.676000118255615 2.2990000247955322,-8.467000007629395 1.871999979019165,-9.166999816894531 C1.871999979019165,-9.166999816894531 0.8820000290870667,-10.817999839782715 0.8820000290870667,-10.817999839782715 C0.5989999771118164,-11.293000221252441 -0.01899999938905239,-11.447999954223633 -0.49000000953674316,-11.163000106811523 C-0.628000020980835,-11.081000328063965 -0.7279999852180481,-10.96500015258789 -0.8090000152587891,-10.83899974822998 C-0.8700000047683716,-10.779000282287598 -0.9369999766349792,-10.725000381469727 -0.9819999933242798,-10.64799976348877 C-0.9819999933242798,-10.64799976348877 -1.8680000305175781,-9.17300033569336 -1.8680000305175781,-9.17300033569336 C-2.2980000972747803,-8.467000007629395 -2.697000026702881,-7.676000118255615 -3.0920000076293945,-6.756999969482422 C-3.703000068664551,-5.329999923706055 -4.190999984741211,-3.8380000591278076 -4.580999851226807,-2.188999891281128 C-5.250999927520752,0.7020000219345093 -5.406000137329102,3.375 -5.031000137329102,5.539999961853027 C-4.8429999351501465,6.629000186920166 -4.5229997634887695,7.593999862670898 -4.083000183105469,8.406000137329102 C-3.6489999294281006,9.217000007629395 -2.2850000858306885,10.569000244140625 -1.9320000410079956,10.76200008392334 C-1.7309999465942383,10.890000343322754 -1.5540000200271606,10.994999885559082 -1.3980000019073486,11.067999839782715 C-0.9440000057220459,11.3100004196167 -0.44699999690055847,11.41100025177002 -0.3499999940395355,11.430000305175781 C-0.2879999876022339,11.440999984741211 -0.22599999606609344,11.446999549865723 -0.16500000655651093,11.446999549865723 C-0.10899999737739563,11.446999549865723 -0.05999999865889549,11.428000450134277 -0.006000000052154064,11.418999671936035 C-0.004000000189989805,11.418999671936035 -0.003000000026077032,11.418999671936035 -0.0010000000474974513,11.418999671936035 C0.023000000044703484,11.418999671936035 0.04800000041723251,11.418999671936035 0.07199999690055847,11.416999816894531 C0.871999979019165,11.361000061035156 1.2829999923706055,11.170999526977539 1.4989999532699585,11.017999649047852 C1.6260000467300415,10.95199966430664 1.7589999437332153,10.871999740600586 1.8849999904632568,10.789999961853027 C2.115000009536743,10.663000106811523 2.313999891281128,10.5 2.507999897003174,10.343999862670898 C2.507999897003174,10.343999862670898 2.63700008392334,10.239999771118164 2.63700008392334,10.239999771118164 C3.2209999561309814,9.723999977111816 3.7070000171661377,9.107000350952148 4.080999851226807,8.409000396728516 C4.521999835968018,7.593999862670898 4.8429999351501465,6.629000186920166 5.031000137329102,5.539999961853027 C5.406000137329102,3.375999927520752 5.25,0.703000009059906 4.578999996185303,-2.194999933242798z" stroke="#C58F4D"></path></g></g><g class="linea" transform="matrix(1,0,0,1,0,0)" opacity="1" style="display: block;"><g opacity="1" transform="matrix(1,0,0,1,53.4119987487793,37.3120002746582)"><path stroke-linecap="round" stroke-linejoin="miter" fill-opacity="0" stroke-miterlimit="10" stroke="#C58F4D" stroke-opacity="1" stroke-width="2" d=" M17.649999618530273,-28.295000076293945 C15.093000411987305,-27.32900047302246 12.413000106811523,-26.23200035095215 9.619999885559082,-25.038999557495117 C5.6570000648498535,-23.351999282836914 1.4709999561309814,-21.448999404907227 -2.953000068664551,-19.562999725341797 C-5.164999961853027,-18.6299991607666 -7.441999912261963,-17.68600082397461 -9.781999588012695,-16.922000885009766 C-10.366999626159668,-16.729999542236328 -10.954999923706055,-16.562000274658203 -11.541000366210938,-16.410999298095703 C-11.835000038146973,-16.339000701904297 -12.126999855041504,-16.270999908447266 -12.416999816894531,-16.215999603271484 C-12.416999816894531,-16.215999603271484 -13.355999946594238,-16.04400062561035 -13.355999946594238,-16.04400062561035 C-14.62600040435791,-15.814000129699707 -15.904999732971191,-15.59000015258789 -17.197999954223633,-15.383999824523926 C-22.357999801635742,-14.564000129699707 -27.746999740600586,-13.914999961853027 -33.194000244140625,-14.17199993133545 C-33.65399932861328,-14.206999778747559 -34.112998962402344,-14.241000175476074 -34.57099914550781,-14.276000022888184 C-34.57099914550781,-14.276000022888184 -35.25699996948242,-14.32699966430664 -35.25699996948242,-14.32699966430664 C-35.25699996948242,-14.32699966430664 -35.933998107910156,-14.414999961853027 -35.933998107910156,-14.414999961853027 C-36.3849983215332,-14.473999977111816 -36.834999084472656,-14.532999992370605 -37.284000396728516,-14.590999603271484 C-37.72600173950195,-14.677000045776367 -38.16699981689453,-14.76099967956543 -38.60599899291992,-14.845999717712402 C-38.82500076293945,-14.890999794006348 -39.04800033569336,-14.925000190734863 -39.263999938964844,-14.977999687194824 C-39.263999938964844,-14.977999687194824 -39.90599822998047,-15.149999618530273 -39.90599822998047,-15.149999618530273 C-40.33100128173828,-15.269000053405762 -40.76499938964844,-15.364999771118164 -41.180999755859375,-15.50100040435791 C-42,-15.800000190734863 -42.8390007019043,-16.051000595092773 -43.60200119018555,-16.44099998474121 C-45.18299865722656,-17.104999542236328 -46.582000732421875,-18.052000045776367 -47.819000244140625,-19.13800048828125 C-49.03799819946289,-20.226999282836914 -50.07099914550781,-21.499000549316406 -50.625,-22.847000122070312 C-50.888999938964844,-23.518999099731445 -51.03200149536133,-24.201000213623047 -50.98699951171875,-24.843000411987305 C-50.94300079345703,-25.483999252319336 -50.736000061035156,-26.090999603271484 -50.349998474121094,-26.634000778198242 C-50.16899871826172,-26.909000396728516 -49.93299865722656,-27.163000106811523 -49.68299865722656,-27.405000686645508 C-49.417999267578125,-27.649999618530273 -49.104000091552734,-27.89299964904785 -48.81999969482422,-28.13800048828125 C-48.5099983215332,-28.354000091552734 -48.20500183105469,-28.57900047302246 -47.88999938964844,-28.781999588012695 C-47.558998107910156,-28.959999084472656 -47.24800109863281,-29.173999786376953 -46.90700149536133,-29.326000213623047 C-44.215999603271484,-30.663000106811523 -41.11000061035156,-30.82200050354004 -38.22600173950195,-30.422000885009766 C-35.32099914550781,-30.030000686645508 -32.58599853515625,-29.143999099731445 -30.05500030517578,-28.166000366210938 C-27.525999069213867,-27.165000915527344 -25.184999465942383,-26.055999755859375 -23.027000427246094,-24.944000244140625 C-18.714000701904297,-22.707000732421875 -15.098999977111816,-20.514999389648438 -12.170000076293945,-18.714000701904297 C-9.343999862670898,-16.76099967956543 -5.921000003814697,-14.298999786376953 -1.9809999465942383,-11.440999984741211 C1.965999960899353,-8.590999603271484 6.416999816894531,-5.326000213623047 11.446000099182129,-1.9429999589920044 C13.961999893188477,-0.2540000081062317 16.628000259399414,1.4600000381469727 19.489999771118164,3.1029999256134033 C22.35700035095215,4.734000205993652 25.416000366210938,6.321000099182129 28.82200050354004,7.510000228881836 C30.525999069213867,8.093999862670898 32.32699966430664,8.572999954223633 34.23899841308594,8.781999588012695 C36.090999603271484,8.946000099182129 37.99100112915039,9.006999969482422 39.92399978637695,8.819999694824219 C41.85300064086914,8.61299991607666 43.821998596191406,8.16100025177002 45.68000030517578,7.263000011444092 C46.5890007019043,6.7729997634887695 47.500999450683594,6.238999843597412 48.275001525878906,5.486999988555908 C48.68600082397461,5.144000053405762 49.02000045776367,4.708000183105469 49.36899948120117,4.290999889373779 C49.529998779296875,4.070000171661377 49.66899871826172,3.8310000896453857 49.81700134277344,3.5989999771118164 C49.9739990234375,3.371999979019165 50.08700180053711,3.118000030517578 50.198001861572266,2.861999988555908 C50.874000549316406,1.3760000467300415 51.03200149536133,-0.375 50.55799865722656,-1.9199999570846558 C50.106998443603516,-3.4739999771118164 49.16600036621094,-4.801000118255615 48.047000885009766,-5.826000213623047 C46.92100143432617,-6.85099983215332 45.62699890136719,-7.632999897003174 44.28099822998047,-8.166999816894531 C42.9379997253418,-8.711999893188477 41.55799865722656,-9.100000381469727 40.18000030517578,-9.307999610900879 C37.42300033569336,-9.76200008392334 34.70000076293945,-9.711999893188477 32.10100173950195,-9.411999702453613 C31.45400047302246,-9.357999801635742 30.792999267578125,-9.243000030517578 30.138999938964844,-9.133000373840332 C29.490999221801758,-8.991000175476074 28.84600067138672,-8.855999946594238 28.22100067138672,-8.661999702453613 C26.968000411987305,-8.293000221252441 25.757999420166016,-7.835999965667725 24.628000259399414,-7.271999835968018 C23.4950008392334,-6.711999893188477 22.426000595092773,-6.078999996185303 21.41900062561035,-5.395999908447266 C20.420000076293945,-4.702000141143799 19.482999801635742,-3.9619998931884766 18.600000381469727,-3.194999933242798 C16.8439998626709,-1.649999976158142 15.315999984741211,0.007000000216066837 13.949000358581543,1.6759999990463257 C11.225000381469727,5.0269999504089355 9.121999740600586,8.41100025177002 7.257999897003174,11.494999885559082 C6.796000003814697,12.267000198364258 6.343999862670898,13.020000457763672 5.9039998054504395,13.753999710083008 C5.443999767303467,14.51099967956543 5.070000171661377,15.28499984741211 4.74399995803833,16.04199981689453 C4.09499979019165,17.559999465942383 3.6440000534057617,19.041000366210938 3.311000108718872,20.44300079345703 C2.6619999408721924,23.249000549316406 2.5230000019073486,25.768999099731445 2.871999979019165,27.775999069213867 C3.0450000762939453,28.777999877929688 3.3399999141693115,29.64699935913086 3.7149999141693115,30.339000701904297 C4.0879998207092285,31.03499984741211 5.335000038146973,32.22100067138672 5.515999794006348,32.32099914550781 C5.689000129699707,32.430999755859375 5.833000183105469,32.52399826049805 5.961999893188477,32.57699966430664 C6.307000160217285,32.770999908447266 6.750999927520752,32.854000091552734 6.750999927520752,32.854000091552734" fill="#C58F4D"></path></g></g><g class="linea" transform="matrix(1,0,0,1,0,0)" opacity="1" style="display: block;"><g opacity="1" transform="matrix(1,0,0,1,67.24700164794922,37.29899978637695)"><path stroke-linecap="round" stroke-linejoin="miter" fill-opacity="0" stroke-miterlimit="10" stroke="#C58F4D" stroke-opacity="1" stroke-width="2" d=" M-17.63800048828125,-28.277999877929688 C-15.085000038146973,-27.312000274658203 -12.409000396728516,-26.215999603271484 -9.619999885559082,-25.024999618530273 C-5.6570000648498535,-23.33799934387207 -1.4709999561309814,-21.434999465942383 2.953000068664551,-19.548999786376953 C5.164999961853027,-18.615999221801758 7.441999912261963,-17.67300033569336 9.781999588012695,-16.909000396728516 C10.366999626159668,-16.716999053955078 10.954999923706055,-16.548999786376953 11.541000366210938,-16.398000717163086 C11.835000038146973,-16.326000213623047 12.126999855041504,-16.256999969482422 12.416999816894531,-16.20199966430664 C12.416999816894531,-16.20199966430664 13.355999946594238,-16.0310001373291 13.355999946594238,-16.0310001373291 C14.62600040435791,-15.800999641418457 15.904999732971191,-15.576000213623047 17.197999954223633,-15.369999885559082 C22.357999801635742,-14.550000190734863 27.746999740600586,-13.902000427246094 33.194000244140625,-14.159000396728516 C33.65399932861328,-14.194000244140625 34.112998962402344,-14.22700023651123 34.57099914550781,-14.26200008392334 C34.57099914550781,-14.26200008392334 35.25699996948242,-14.314000129699707 35.25699996948242,-14.314000129699707 C35.25699996948242,-14.314000129699707 35.933998107910156,-14.402000427246094 35.933998107910156,-14.402000427246094 C36.3849983215332,-14.461000442504883 36.834999084472656,-14.519000053405762 37.284000396728516,-14.57699966430664 C37.72600173950195,-14.663000106811523 38.16699981689453,-14.748000144958496 38.60599899291992,-14.833000183105469 C38.82500076293945,-14.878000259399414 39.04800033569336,-14.911999702453613 39.263999938964844,-14.96500015258789 C39.263999938964844,-14.96500015258789 39.90599822998047,-15.13700008392334 39.90599822998047,-15.13700008392334 C40.33100128173828,-15.255999565124512 40.76499938964844,-15.35200023651123 41.180999755859375,-15.48799991607666 C42,-15.786999702453613 42.8390007019043,-16.038000106811523 43.60200119018555,-16.42799949645996 C45.18299865722656,-17.091999053955078 46.582000732421875,-18.038000106811523 47.819000244140625,-19.124000549316406 C49.03799819946289,-20.21299934387207 50.07099914550781,-21.485000610351562 50.625,-22.83300018310547 C50.888999938964844,-23.5049991607666 51.03200149536133,-24.187000274658203 50.98699951171875,-24.82900047302246 C50.94300079345703,-25.469999313354492 50.736000061035156,-26.07699966430664 50.349998474121094,-26.6200008392334 C50.16899871826172,-26.895000457763672 49.93299865722656,-27.14900016784668 49.68299865722656,-27.391000747680664 C49.417999267578125,-27.63599967956543 49.104000091552734,-27.878999710083008 48.81999969482422,-28.124000549316406 C48.5099983215332,-28.34000015258789 48.20500183105469,-28.565000534057617 47.88999938964844,-28.76799964904785 C47.558998107910156,-28.945999145507812 47.24800109863281,-29.15999984741211 46.90700149536133,-29.312000274658203 C44.215999603271484,-30.64900016784668 41.11000061035156,-30.808000564575195 38.22600173950195,-30.408000946044922 C35.32099914550781,-30.016000747680664 32.58599853515625,-29.1299991607666 30.05500030517578,-28.152000427246094 C27.525999069213867,-27.150999069213867 25.184999465942383,-26.04199981689453 23.027000427246094,-24.93000030517578 C18.714000701904297,-22.69300079345703 15.098999977111816,-20.50200080871582 12.170000076293945,-18.701000213623047 C9.343999862670898,-16.74799919128418 5.921000003814697,-14.28600025177002 1.9809999465942383,-11.428000450134277 C-1.965999960899353,-8.57800006866455 -6.416999816894531,-5.313000202178955 -11.446000099182129,-1.9299999475479126 C-13.961999893188477,-0.2409999966621399 -16.628000259399414,1.4739999771118164 -19.489999771118164,3.117000102996826 C-22.35700035095215,4.748000144958496 -25.416000366210938,6.334000110626221 -28.82200050354004,7.5229997634887695 C-30.525999069213867,8.107000350952148 -32.32699966430664,8.586999893188477 -34.23899841308594,8.795999526977539 C-36.090999603271484,8.960000038146973 -37.99100112915039,9.020000457763672 -39.92399978637695,8.833000183105469 C-41.85300064086914,8.62600040435791 -43.821998596191406,8.175000190734863 -45.68000030517578,7.2769999504089355 C-46.5890007019043,6.7870001792907715 -47.500999450683594,6.252999782562256 -48.275001525878906,5.500999927520752 C-48.68600082397461,5.1579999923706055 -49.02000045776367,4.7220001220703125 -49.36899948120117,4.304999828338623 C-49.529998779296875,4.084000110626221 -49.66899871826172,3.8450000286102295 -49.81700134277344,3.61299991607666 C-49.9739990234375,3.385999917984009 -50.08700180053711,3.131999969482422 -50.198001861572266,2.875999927520752 C-50.874000549316406,1.3899999856948853 -51.03200149536133,-0.3610000014305115 -50.55799865722656,-1.906000018119812 C-50.106998443603516,-3.4600000381469727 -49.16600036621094,-4.7870001792907715 -48.047000885009766,-5.811999797821045 C-46.92100143432617,-6.836999893188477 -45.62699890136719,-7.619999885559082 -44.28099822998047,-8.154000282287598 C-42.9379997253418,-8.699000358581543 -41.55799865722656,-9.086000442504883 -40.18000030517578,-9.293999671936035 C-37.42300033569336,-9.748000144958496 -34.70000076293945,-9.697999954223633 -32.10100173950195,-9.39799976348877 C-31.45400047302246,-9.343999862670898 -30.792999267578125,-9.229999542236328 -30.138999938964844,-9.119999885559082 C-29.490999221801758,-8.977999687194824 -28.84600067138672,-8.842000007629395 -28.22100067138672,-8.64799976348877 C-26.968000411987305,-8.279000282287598 -25.757999420166016,-7.822000026702881 -24.628000259399414,-7.257999897003174 C-23.4950008392334,-6.697999954223633 -22.426000595092773,-6.065999984741211 -21.41900062561035,-5.382999897003174 C-20.420000076293945,-4.689000129699707 -19.482999801635742,-3.9489998817443848 -18.600000381469727,-3.181999921798706 C-16.8439998626709,-1.6369999647140503 -15.315999984741211,0.019999999552965164 -13.949000358581543,1.6890000104904175 C-11.225000381469727,5.039999961853027 -9.121999740600586,8.423999786376953 -7.257999897003174,11.508000373840332 C-6.796000003814697,12.279999732971191 -6.343999862670898,13.034000396728516 -5.9039998054504395,13.767999649047852 C-5.443999767303467,14.524999618530273 -5.070000171661377,15.29800033569336 -4.74399995803833,16.05500030517578 C-4.09499979019165,17.572999954223633 -3.6440000534057617,19.054000854492188 -3.311000108718872,20.45599937438965 C-2.6610000133514404,23.261999130249023 -2.5230000019073486,25.783000946044922 -2.871999979019165,27.790000915527344 C-3.0450000762939453,28.79199981689453 -3.3399999141693115,29.660999298095703 -3.7149999141693115,30.35300064086914 C-4.0879998207092285,31.048999786376953 -4.539999961853027,31.55500030517578 -4.942999839782715,31.910999298095703 C-5.15500020980835,32.08000183105469 -5.335000038146973,32.23500061035156 -5.515999794006348,32.334999084472656 C-5.689000129699707,32.44499969482422 -5.833000183105469,32.5369987487793 -5.961999893188477,32.59000015258789 C-6.139999866485596,32.784000396728516 -6.918000221252441,32.84000015258789 -6.918000221252441,32.84000015258789" fill="#C58F4D"></path></g></g></g></svg>